<?xml version="1.0" encoding="utf-8"?>
<!-- Svg Vector Icons : http://www.onlinewebfonts.com/icon -->
<!DOCTYPE svg PUBLIC "-//W3C//DTD SVG 1.1//EN" "http://www.w3.org/Graphics/SVG/1.1/DTD/svg11.dtd">
<svg version="1.1" xmlns="http://www.w3.org/2000/svg" xmlns:xlink="http://www.w3.org/1999/xlink" x="0px" y="0px" viewBox="0 0 256 256" enable-background="new 0 0 256 256" xml:space="preserve">
<metadata> Svg Vector Icons : http://www.onlinewebfonts.com/icon </metadata>
<g><g><path fill="#000000" d="M233,246c-52.1,0-159.4,0-209.9,0c-12.7-64.9,65-104.9,104.9-104.9C167.6,141.1,244.9,179.5,233,246z M128.1,154.2c-29,0-91.8,35.4-91.8,78.7c47.6,0,138.1,0,183.6,0C219.9,189.6,157.1,154.2,128.1,154.2z M62.5,75.5c0-36.2,29.4-65.5,65.6-65.5c36.2,0,65.6,29.4,65.6,65.5c0,36.2-29.4,65.5-65.6,65.5C91.8,141.1,62.5,111.8,62.5,75.5z M128.1,128c29,0,52.5-23.5,52.5-52.4c0-29-23.5-52.4-52.5-52.4c-29,0-52.5,23.5-52.5,52.4C75.6,104.5,99.1,128,128.1,128z"/></g></g>
</svg>